<svg xmlns="http://www.w3.org/2000/svg" width="600" height="600" viewBox="-300 -300 600 600" style="background-color: transparent; box-shadow: rgba(0, 0, 0, 0.1) 0px 10px 30px; border-radius: 15px;"><line x1="0" y1="0" x2="223" y2="0" stroke="#000000" stroke-width="3" stroke-linecap="round"/><line x1="0" y1="0" x2="197.4566937206658" y2="103.63326736576037" stroke="#000000" stroke-width="3" stroke-linecap="round"/><line x1="0" y1="0" x2="126.67843852104777" y2="183.52540209428537" stroke="#000000" stroke-width="3" stroke-linecap="round"/><line x1="0" y1="0" x2="26.879679696937078" y2="221.37407892386602" stroke="#000000" stroke-width="3" stroke-linecap="round"/><line x1="0" y1="0" x2="-79.07688981048541" y2="208.5086221188475" stroke="#000000" stroke-width="3" stroke-linecap="round"/><line x1="0" y1="0" x2="-166.9178968421555" y2="147.8763527876974" stroke="#000000" stroke-width="3" stroke-linecap="round"/><line x1="0" y1="0" x2="-216.52002528600957" y2="53.36739313612546" stroke="#000000" stroke-width="3" stroke-linecap="round"/><line x1="0" y1="0" x2="-216.52002528600963" y2="-53.36739313612531" stroke="#000000" stroke-width="3" stroke-linecap="round"/><line x1="0" y1="0" x2="-166.91789684215559" y2="-147.87635278769727" stroke="#000000" stroke-width="3" stroke-linecap="round"/><line x1="0" y1="0" x2="-79.07688981048551" y2="-208.50862211884748" stroke="#000000" stroke-width="3" stroke-linecap="round"/><line x1="0" y1="0" x2="26.87967969693688" y2="-221.37407892386605" stroke="#000000" stroke-width="3" stroke-linecap="round"/><line x1="0" y1="0" x2="126.6784385210477" y2="-183.52540209428543" stroke="#000000" stroke-width="3" stroke-linecap="round"/><line x1="0" y1="0" x2="197.45669372066573" y2="-103.63326736576053" stroke="#000000" stroke-width="3" stroke-linecap="round"/><g transform="translate(223, 0)"><circle r="37" fill="#000000"/><circle r="14.8" fill="#be7800"/></g><g transform="translate(197.4566937206658, 103.63326736576037)"><circle r="37" fill="#000000"/><circle r="14.8" fill="#be7800"/></g><g transform="translate(126.67843852104777, 183.52540209428537)"><circle r="37" fill="#000000"/><circle r="14.8" fill="#be7800"/></g><g transform="translate(26.879679696937078, 221.37407892386602)"><circle r="37" fill="#000000"/><circle r="14.8" fill="#be7800"/></g><g transform="translate(-79.07688981048541, 208.5086221188475)"><circle r="37" fill="#000000"/><circle r="14.8" fill="#be7800"/></g><g transform="translate(-166.9178968421555, 147.8763527876974)"><circle r="37" fill="#000000"/><circle r="14.8" fill="#be7800"/></g><g transform="translate(-216.52002528600957, 53.36739313612546)"><circle r="37" fill="#000000"/><circle r="14.8" fill="#be7800"/></g><g transform="translate(-216.52002528600963, -53.36739313612531)"><circle r="37" fill="#000000"/><circle r="14.8" fill="#be7800"/></g><g transform="translate(-166.91789684215559, -147.87635278769727)"><circle r="37" fill="#000000"/><circle r="14.8" fill="#be7800"/></g><g transform="translate(-79.07688981048551, -208.50862211884748)"><circle r="37" fill="#000000"/><circle r="14.8" fill="#be7800"/></g><g transform="translate(26.87967969693688, -221.37407892386605)"><circle r="37" fill="#000000"/><circle r="14.8" fill="#be7800"/></g><g transform="translate(126.6784385210477, -183.52540209428543)"><circle r="37" fill="#000000"/><circle r="14.8" fill="#be7800"/></g><g transform="translate(197.45669372066573, -103.63326736576053)"><circle r="37" fill="#000000"/><circle r="14.8" fill="#be7800"/></g><circle cx="0" cy="0" r="100" fill="#000000"/><circle cx="0" cy="0" r="40" fill="#be7800"/></svg>