<?xml version="1.0" encoding="UTF-8"?>
<!-- Generator: visioncortex VTracer 0.6.5 -->
<svg version="1.1" xmlns="http://www.w3.org/2000/svg" width="1024" height="1024">
<path d="M0 0 C0.33 0.33 0.66 0.66 1 1 C1.21 0.37 1.42 -0.26 1.63 -0.91 C4.44 -8.71 8.32 -15.04 15.5 -19.5 C22.34 -22.47 30.97 -22.29 37.98 -20.05 C46.57 -15.94 52.06 -10.03 57.62 -2.5 C58.74 -1.01 59.86 0.48 60.98 1.97 C61.5 2.66 62.01 3.36 62.55 4.07 C64.32 6.42 66.14 8.72 68 11 C72.43 6.19 76.78 1.39 80.75 -3.81 C86.64 -11.49 93.46 -18.41 103 -21 C111.7 -22.05 118.79 -21.15 126 -16 C130.09 -12.52 132.24 -8.75 134.16 -3.76 C134.51 -2.87 134.86 -1.97 135.22 -1.05 C135.35 -0.71 135.35 -0.71 136 1 C136.74 0.5 137.49 -0.01 138.26 -0.53 C141.09 -2.44 143.93 -4.35 146.77 -6.25 C147.98 -7.07 149.2 -7.89 150.41 -8.71 C162.41 -16.82 174.59 -24.33 187.94 -30.06 C188.91 -30.48 189.87 -30.9 190.87 -31.33 C201.33 -35.73 212.05 -39.07 223 -42 C223.68 -42.18 224.36 -42.36 225.06 -42.55 C265.17 -52.93 309.78 -46.43 345.68 -26.02 C351.44 -22.52 357.21 -18.79 362 -14 C373.02 -9.96 388.67 -13.15 398.91 -17.66 C412.38 -23.96 423.88 -32.06 434 -43 C434.66 -42.67 435.32 -42.34 436 -42 C428.34 -22.13 416.18 -8.43 397 1 C387.66 5 387.66 5 383 5 C383.44 5.68 383.87 6.36 384.32 7.05 C386.22 10.03 388.11 13.01 390 16 C390.27 16.42 390.27 16.42 391.62 18.57 C402.65 36.43 408.93 56.06 404.81 77.06 C403.23 83.72 400.95 89.83 398 96 C397.78 96.45 397.78 96.45 396.7 98.73 C379.63 132.09 344.99 153.54 310.69 165.69 C256.05 183.26 202.37 168.81 152.53 144.32 C149.95 142.97 147.47 141.52 145 140 C145.33 140.99 145.66 141.98 146 143 C146.91 151.15 145.46 158.42 140.46 165.04 C135.03 170.87 128.33 174.52 120.37 175.24 C106.35 175.59 95.69 169.06 84 162 C82.39 164.95 80.85 167.94 79.31 170.94 C79.09 171.35 79.09 171.35 77.94 173.46 C75.83 177.64 74.41 180.68 75.88 185.28 C76.56 186.86 77.27 188.44 78 190 C78.86 192.11 79.72 194.23 80.57 196.35 C80.81 196.93 80.81 196.93 82.02 199.88 C114.99 279.83 114.99 279.83 100.19 315.94 C95.5 325.38 88.46 333.22 78.59 337.25 C69.48 339.9 60.07 339.86 51.47 335.81 C40.95 330 34.83 321.5 31.06 310.19 C21.4 275.24 36.28 236.76 49.35 204.67 C49.49 204.32 49.49 204.32 50.19 202.59 C51.55 199.26 52.92 195.94 54.33 192.63 C54.82 191.44 55.32 190.26 55.82 189.03 C56.27 187.99 56.71 186.94 57.17 185.86 C58.49 181.3 57.25 178.11 55.15 174.01 C54.79 173.31 54.44 172.6 54.07 171.87 C53.88 171.51 53.88 171.51 52.94 169.69 C52.56 168.95 52.18 168.21 51.79 167.44 C50.87 165.63 49.94 163.81 49 162 C45.56 163.26 42.78 164.73 39.81 166.88 C31.71 172.41 22.88 175.65 13 175 C2.92 172.83 -3.93 168.35 -10 160 C-13.73 153.58 -14.07 145.85 -12.48 138.67 C-12.4 138.4 -12.4 138.4 -12 137 C-12.93 137.48 -13.87 137.97 -14.83 138.47 C-39.26 151 -64.81 160.65 -92 165 C-92.34 165.06 -92.34 165.06 -94.05 165.35 C-138.65 172.78 -184.49 161.94 -221.42 136.18 C-227.76 131.6 -233.41 126.45 -239 121 C-239.86 120.21 -240.72 119.42 -241.61 118.61 C-257.64 103.55 -268.42 82.23 -269.4 60.14 C-269.8 38.53 -259.92 19.7 -247 3 C-247.56 2.79 -248.12 2.58 -248.7 2.37 C-270 -5.81 -287.42 -17.49 -297.29 -38.78 C-299.34 -43.64 -299.34 -43.64 -300 -46 C-299.67 -46.66 -299.34 -47.32 -299 -48 C-298.45 -47.41 -297.9 -46.81 -297.34 -46.2 C-287.89 -36.32 -277.5 -28.32 -265.12 -22.44 C-264.45 -22.12 -263.77 -21.79 -263.07 -21.46 C-252.37 -16.64 -239.59 -14.81 -228 -17 C-223.09 -18.96 -219.09 -22.37 -214.94 -25.58 C-148.61 -74.02 -59.39 -42.78 0 0 Z M-229.3 8.99 C-242.39 23.22 -251.97 41.34 -252 61 C-250.31 82.69 -236.18 101.47 -220.27 115.32 C-203.88 129.05 -183.64 139.56 -163 145 C-162.62 145.1 -162.62 145.1 -160.68 145.61 C-116.96 156.67 -69.22 146.59 -29 128 C-28.15 127.62 -27.3 127.23 -26.43 126.84 C-8.79 118.82 7.46 109.57 23 98 C20.25 94 17.78 90.47 14 87.38 C11.52 85.32 9.51 83.44 7.38 81 C5 79 5 79 2.27 79.15 C-1.47 80.12 -4.28 81.63 -7.62 83.56 C-38.62 100.74 -80.17 112.29 -115.33 102.98 C-130.96 98.19 -143.2 90.65 -151 76 C-154.6 66.47 -154.74 57.45 -151.22 47.88 C-146.65 37.8 -138.31 30.26 -128.04 26.23 C-96.55 15.07 -63.98 22.11 -34.5 35.77 C-22.73 41.56 -11.75 48.71 -1.63 57.04 C0.98 58.98 2.88 60.12 6 61 C8.23 60.2 8.23 60.2 10.47 58.75 C11.29 58.22 12.11 57.7 12.95 57.15 C13.79 56.59 14.63 56.02 15.5 55.44 C16.34 54.9 17.18 54.36 18.05 53.8 C22.52 50.89 26.41 47.95 30 44 C22.55 37.04 15 30.33 7 24 C5.99 23.2 4.99 22.4 3.95 21.57 C-62.16 -30.54 -163.4 -58.51 -229.3 8.99 Z M114.53 37.67 C112.05 39.82 109.53 41.91 107 44 C108.33 47.99 110.18 48.69 113.69 50.94 C114.21 51.27 114.21 51.27 116.82 52.96 C117.35 53.3 117.35 53.3 120 55 C121.02 55.76 122.03 56.53 123.08 57.32 C126 59 126 59 128.6 58.94 C131.23 57.91 133.13 56.7 135.38 55 C166.85 32.26 204.89 19.24 243.97 24.39 C254.29 26.26 263.42 29.89 272 36 C272.68 36.47 273.37 36.94 274.07 37.43 C280.89 42.65 285.9 51.28 287.52 59.69 C288.71 71.31 286.58 80.26 279.31 89.52 C275.65 93.45 271.61 96.29 267 99 C266.68 99.19 266.68 99.19 265.08 100.17 C243.83 111.98 214.67 110.41 192 104 C173.51 98.64 156.65 91.07 139.72 82 C138.77 81.5 137.83 80.99 136.86 80.48 C136.44 80.25 136.44 80.25 134.31 79.1 C132.17 78.08 130.34 77.36 128 77 C126.28 78.05 126.28 78.05 124.5 79.75 C123.82 80.39 123.14 81.02 122.44 81.68 C121.63 82.44 120.83 83.21 120 84 C118.39 85.48 116.77 86.95 115.15 88.43 C112.76 90.61 110.38 92.81 108 95 C109.35 98.13 110.68 99.82 113.43 101.81 C114.13 102.32 114.83 102.84 115.56 103.36 C116.32 103.9 117.09 104.44 117.88 105 C118.68 105.57 119.48 106.14 120.3 106.73 C129.23 113 138.5 118.63 148 124 C148.83 124.47 149.67 124.94 150.53 125.43 C196.12 150.93 249.35 164.46 300.69 150.25 C322.22 143.94 340.8 133.31 358 119 C358.69 118.46 359.39 117.92 360.11 117.36 C365.58 113 369.74 107.51 374 102 C374.63 101.21 375.27 100.41 375.92 99.59 C386.32 85.82 389.71 69.84 387.61 52.85 C382.53 29.11 364.27 7.39 344.38 -5.56 C266.17 -54.93 178.1 -17.98 114.53 37.67 Z M18 -2 C15.56 3.63 15.78 7.97 17.83 13.68 C19.95 17.89 23.29 20.69 26.81 23.75 C27.51 24.38 28.21 25.02 28.93 25.67 C32.87 29.21 36.91 32.63 41 36 C45.21 34.27 48.35 31.32 51.75 28.38 C52.35 27.86 52.95 27.34 53.57 26.81 C55.05 25.55 56.53 24.27 58 23 C56.55 18.61 54.31 15.69 51.31 12.19 C50.86 11.66 50.42 11.14 49.96 10.6 C48.64 9.07 47.32 7.53 46 6 C45.35 5.2 44.7 4.4 44.03 3.58 C40 -1.3 36.27 -5.29 29.73 -6.38 C24.65 -6.64 21.34 -6.15 18 -2 Z M91.17 5.34 C86.49 11.07 82.07 16.82 78 23 C80.1 24.79 82.21 26.58 84.31 28.38 C84.61 28.63 84.61 28.63 86.12 29.91 C86.69 30.4 87.27 30.89 87.86 31.4 C88.39 31.85 88.92 32.3 89.47 32.76 C93.53 36.04 93.53 36.04 95.95 35.85 C98.52 34.78 99.85 33.4 101.75 31.38 C104.47 28.55 107.21 25.87 110.19 23.31 C119.86 14.91 119.86 14.91 121 9 C121.07 4.35 120.61 0.98 118.12 -3 C115.39 -5.58 113.52 -5.95 109.81 -6.31 C101.17 -5.6 96.65 -1.08 91.17 5.34 Z M61.62 36.81 C58.52 39.72 55.47 42.53 52 45 C53.43 48.39 55.17 50.24 58 52.56 C60.56 54.67 62.13 56.2 64 59 C64.66 59 65.32 59 66 59 C66 59.66 66 60.32 66 61 C70.77 60.1 73.29 57.41 76.75 54.19 C77.35 53.65 77.95 53.12 78.57 52.57 C79.14 52.04 79.71 51.52 80.3 50.98 C80.82 50.51 81.34 50.03 81.87 49.54 C83 48 83 48 83 44 C80.95 41.75 80.95 41.75 78.25 39.44 C77.37 38.67 76.49 37.91 75.58 37.12 C67.97 30.86 67.97 30.86 61.62 36.81 Z M-133.62 47.56 C-138.12 52.89 -139.48 57.57 -139.31 64.45 C-138.41 71.91 -133.73 77.44 -128 82 C-110.05 94.52 -86.68 94.08 -65.94 90.5 C-48.49 87.13 -31.95 80.37 -15.86 72.98 C-15.52 72.83 -15.52 72.83 -13.81 72.04 C-11.86 70.92 -10.51 69.65 -9 68 C-37.46 44.47 -102.24 13.7 -133.62 47.56 Z M142 66 C143.42 70.25 146.41 71.18 150.19 73.12 C150.56 73.32 150.56 73.32 152.47 74.31 C182.82 89.7 217.62 101.32 251.36 90.97 C259.94 87.75 267.36 82.95 271.56 74.56 C273.83 68.47 274.11 62.87 271.44 56.88 C265.8 47 256.98 42.29 246.31 39.25 C209.78 29.72 171.83 46.11 142 66 Z M32.38 59.62 C31.12 60.54 29.87 61.46 28.61 62.38 C28 62.82 27.38 63.27 26.75 63.73 C23.24 66.27 19.63 68.64 16 71 C18.36 74.24 20.9 76.85 23.94 79.44 C27.39 82.38 30.21 85.43 33 89 C37.39 88.52 40.14 85.61 43.31 82.81 C43.89 82.32 44.46 81.82 45.05 81.31 C46.19 80.32 47.33 79.34 48.46 78.35 C50.4 76.65 52.35 74.98 54.31 73.31 C55.2 72.55 56.09 71.79 57 71 C53.58 66.88 50.04 62.91 46.31 59.06 C45.57 58.29 44.82 57.52 44.05 56.72 C39.53 52.93 36.28 56.71 32.38 59.62 Z M88.62 60.81 C81.58 67.48 81.58 67.48 78 70 C80.03 74.56 83.12 77.02 86.88 80.19 C87.5 80.73 88.13 81.28 88.77 81.84 C89.38 82.36 89.99 82.88 90.62 83.42 C90.89 83.65 90.89 83.65 92.29 84.85 C94.26 86.18 95.63 86.79 98 87 C99.57 85.98 99.57 85.98 101.06 84.39 C101.61 83.82 102.16 83.25 102.73 82.66 C103.29 82.05 103.86 81.44 104.44 80.81 C105.56 79.63 106.68 78.45 107.81 77.27 C108.34 76.71 108.88 76.14 109.43 75.56 C111.48 73.52 113.69 71.74 116 70 C114.61 66.66 113.19 65.14 110.16 63.2 C109.4 62.72 108.65 62.24 107.88 61.74 C107.09 61.25 106.31 60.76 105.5 60.25 C104.71 59.74 103.93 59.24 103.12 58.71 C95.99 54.17 94.76 54.96 88.62 60.81 Z M61.56 84.94 C56.21 89.86 50.66 94.45 45 99 C46.35 103.08 48.07 105.38 51.19 108.31 C54.84 111.83 58.18 115.45 61.39 119.37 C63.13 121.13 64.74 122.03 67 123 C73.82 115.11 80.57 107.21 87 99 C83.13 94.04 78.81 90.05 74 86 C73.41 85.49 72.83 84.97 72.22 84.45 C67.2 80.09 66.29 80.51 61.56 84.94 Z M97 107 C75.33 130.06 75.33 130.06 75 135 C77.19 137.81 77.19 137.81 80 140 C82.67 139.82 83.74 139.26 85.64 137.36 C85.91 137.02 85.91 137.02 87.25 135.31 C93.1 128.35 99.6 124.32 108 121 C109.01 120.59 110.02 120.18 111.06 119.75 C111.7 119.5 112.34 119.25 113 119 C108.46 113.83 102.85 110.55 97 107 Z M33 108 C31.02 109.45 29.04 110.91 27.06 112.38 C26.5 112.79 25.93 113.2 25.35 113.62 C21.11 116.77 21.11 116.77 20 119 C20.38 119.1 20.38 119.1 22.31 119.63 C28.99 121.62 33.89 123.93 39.16 128.51 C41 130 41 130 44 131 C44.68 132.32 45.35 133.66 46 135 C47.29 136.37 48.62 137.71 50 139 C51.88 138.31 51.88 138.31 54 137 C54.72 135.36 55.39 133.69 56 132 C55.64 131.61 55.64 131.61 53.84 129.66 C52.87 128.6 51.9 127.55 50.94 126.5 C50.44 125.95 49.93 125.41 49.42 124.85 C46.07 121.2 42.81 117.51 39.63 113.72 C37.59 111.57 35.34 109.81 33 108 Z M3.69 136.19 C0.76 141.06 -0.3 145.03 0.56 150.69 C2.75 155.73 5.93 158.92 11 161 C21.96 162.48 29.36 158.28 38.25 152.46 C40 151 40 151 41 148 C36.94 140.04 29.25 134.21 20.87 131.47 C14.28 129.82 8.62 131.52 3.69 136.19 Z M91 149 C97.31 155.9 104.7 160.37 114 162 C120.04 162.24 124.33 161.01 129 157 C132.38 153.16 132.52 149.36 132.34 144.43 C131.81 140.67 130.61 138.74 128 136 C113.4 125.86 100.14 137.29 91 149 Z M65 143 C63.96 144.04 62.94 145.11 61.94 146.19 C61.37 146.78 60.8 147.37 60.21 147.98 C59 150 59 150 59.12 152.38 C60.14 155.41 61.48 158.03 63.06 160.81 C63.61 161.79 64.16 162.76 64.72 163.77 C65.14 164.51 65.57 165.24 66 166 C68.62 163.64 70.18 161.18 71.81 158.06 C72.27 157.21 72.73 156.35 73.21 155.47 C74 153 74 153 73.36 150.89 C71.88 148.83 70.34 147.35 68.38 145.75 C68.06 145.49 68.06 145.49 66.46 144.17 C65.98 143.79 65.5 143.4 65 143 Z M66 199 C54.4 227.15 42.81 257 42.44 287.75 C42.42 288.8 42.41 289.85 42.39 290.92 C42.54 301.62 45.25 312.25 53 320 C57.91 324.14 63.66 325.39 70 325 C76.73 323.35 81.27 319.77 85 314 C96.28 293.97 90.63 269.17 85.03 248.25 C80.32 231.42 74.45 214.8 67 199 C66.67 199 66.34 199 66 199 Z " fill="#F8F8F7" transform="translate(450,370)"/>
<path d="M0 0 C0.66 0.33 1.32 0.66 2 1 C-1.96 4.96 -5.92 8.92 -10 13 C-10 8.83 -7.76 6.86 -5 4 C-3.37 2.62 -1.71 1.27 0 0 Z " fill="#E0E1E1" transform="translate(542,354)"/>
<path d="M0 0 C0.33 0.66 0.66 1.32 1 2 C-1.31 4.64 -3.62 7.28 -6 10 C-6.66 9.67 -7.32 9.34 -8 9 C-5.36 6.03 -2.72 3.06 0 0 Z " fill="#E1E1E1" transform="translate(532,474)"/>
</svg>
